<?xml version="1.0" encoding="UTF-8"?>
<svg version="1.1" xmlns="http://www.w3.org/2000/svg" viewBox="0 0 1200 900">
  <g fill="#dd2424" opacity="0.75">
    <path d="M49.23 530.4l29.41-7.88v56.44l0.68-0.18 28.04-63.96 32.14-8.61 -33.17 70.46 39.67 79.4 -32.14 8.61 -24.62-51.71 -10.6 23.37v37.78l-29.41 7.88V530.4z"/>
    <path d="M152.32 502.78l29.41-7.88v151.6l-29.41 7.88V502.78z"/>
    <path d="M261.91 625.02l-19.15-45.71 -11.28 3.02v50.85l-29.41 7.88V489.45l42.06-11.27c5.93-1.59 11.6-2.33 17.01-2.23 5.41 0.11 10.14 1.48 14.19 4.13 4.04 2.65 7.27 6.8 9.66 12.46 2.39 5.66 3.59 13.23 3.59 22.71 0 10.89-1.62 20.34-4.87 28.36 -3.25 8.02-7.61 14.79-13.08 20.3l24.11 52.32L261.91 625.02zM231.48 550.61l10.6-2.84c11.85-3.18 17.78-11.45 17.78-24.82 0-6.53-1.51-10.63-4.53-12.31 -3.02-1.68-7.44-1.74-13.25-0.18l-10.6 2.84V550.61z"/>
    <path d="M305.51 461.73l29.41-7.88v56.44l0.68-0.18 28.04-63.96 32.14-8.61 -33.17 70.46 39.67 79.4 -32.14 8.61 -24.62-51.71 -10.6 23.37v37.78l-29.41 7.88V461.73z"/>
    <path d="M440.23 425.64l32.83-8.8c8.43-2.26 16.16-2.93 23.17-2.01 7.01 0.92 13.02 3.74 18.04 8.46 5.01 4.72 8.92 11.45 11.71 20.19 2.79 8.74 4.19 19.79 4.19 33.16 0 13.38-1.37 25.25-4.1 35.62 -2.73 10.38-6.58 19.34-11.54 26.88 -4.96 7.55-10.83 13.71-17.61 18.48 -6.78 4.77-14.16 8.23-22.14 10.36l-34.54 9.25V425.64zM471.35 536.72c3.99-1.07 7.75-2.73 11.28-5 3.53-2.27 6.58-5.38 9.15-9.33 2.56-3.95 4.59-9 6.07-15.15 1.48-6.15 2.22-13.66 2.22-22.52 0-8.86-0.74-15.89-2.22-21.09 -1.48-5.2-3.5-9.01-6.07-11.43 -2.56-2.42-5.61-3.74-9.15-3.96 -3.53-0.22-7.3 0.21-11.28 1.27l-1.71 0.46v87.23L471.35 536.72z"/>
    <path d="M592.56 539.22c-7.75 2.08-14.79 2.17-21.11 0.29 -6.33-1.88-11.74-5.6-16.24-11.16 -4.5-5.56-8.01-12.93-10.51-22.14 -2.51-9.2-3.76-20.02-3.76-32.46 0-12.44 1.25-23.85 3.76-34.24 2.51-10.39 6.01-19.49 10.52-27.31 4.5-7.81 9.92-14.28 16.24-19.4 6.33-5.11 13.36-8.71 21.11-10.79 7.64-2.05 14.64-2.21 21.03-0.5 6.38 1.71 11.82 5.31 16.33 10.79 4.5 5.48 8.01 12.71 10.52 21.67 2.51 8.97 3.76 19.67 3.76 32.11 0 12.44-1.26 23.93-3.76 34.48 -2.51 10.55-6.01 19.81-10.52 27.78 -4.5 7.97-9.94 14.6-16.33 19.89C607.21 533.51 600.2 537.18 592.56 539.22zM592.56 504.7c6.72-1.8 11.99-7.22 15.82-16.25 3.82-9.03 5.73-20.46 5.73-34.3 0-13.84-1.91-24.01-5.73-30.53 -3.82-6.52-9.09-8.88-15.81-7.07 -6.73 1.8-12 6.99-15.81 15.55 -3.82 8.57-5.73 19.77-5.73 33.6 0 13.84 1.91 24.25 5.73 31.24C580.56 503.92 585.83 506.51 592.56 504.7z"/>
    <path d="M659.07 367l29.41-7.88v83.03c0 13.53 1.34 22.7 4.02 27.5 2.68 4.8 6.92 6.43 12.74 4.87 5.81-1.56 10.12-5.47 12.91-11.74 2.79-6.27 4.19-16.17 4.19-29.69v-83.03l28.38-7.6v78.37c0 25.97-3.7 46.12-11.11 60.47 -7.41 14.35-18.87 23.6-34.37 27.75 -15.62 4.18-27.21 1.11-34.79-9.22 -7.58-10.33-11.37-28.48-11.37-54.45V367z"/>
    <path d="M765.58 415.43c0-12.75 1.48-24.46 4.45-35.13 2.96-10.67 7.01-20.07 12.14-28.21 5.13-8.14 11.08-14.9 17.87-20.3 6.78-5.39 13.99-9.11 21.63-11.16 7.86-2.11 14.76-1.97 20.69 0.4 5.93 2.38 10.88 5.75 14.87 10.13l-16.07 29.03c-2.73-2.53-5.5-4.32-8.29-5.36 -2.79-1.04-6.41-0.96-10.86 0.23 -3.76 1.01-7.24 2.95-10.43 5.83 -3.19 2.88-5.98 6.5-8.38 10.88 -2.39 4.37-4.25 9.46-5.56 15.25 -1.31 5.8-1.97 12.11-1.97 18.95 0 14.31 2.33 24.64 7.01 31.01 4.67 6.37 12.02 8.21 22.06 5.52 1.6-0.43 3.16-1.08 4.7-1.96 1.54-0.88 2.82-1.92 3.85-3.13v-20.99l-16.41 4.4v-32.65l42.4-11.36v72.3c-4.1 6.23-9.55 12.09-16.33 17.55 -6.78 5.47-14.1 9.26-21.97 11.37 -7.64 2.05-14.82 2.38-21.54 0.99 -6.73-1.38-12.6-4.63-17.61-9.74 -5.02-5.11-8.98-12.13-11.88-21.07C767.03 439.26 765.58 428.34 765.58 415.43z"/>
    <path d="M876.54 308.73l29.41-7.88v118.02l42.06-11.27v33.59l-71.46 19.15V308.73z"/>
    <path d="M1013.83 391.36l-31.12 8.34 -5.47 33.65 -30.09 8.06L981 280.74l35.56-9.53 33.85 142.53 -31.12 8.34L1013.83 391.36zM1008.53 361.76l-1.88-9.99c-1.37-6.94-2.73-14.5-4.1-22.69 -1.37-8.18-2.73-15.9-4.1-23.16l-0.68 0.18c-1.25 8.11-2.54 16.58-3.85 25.4 -1.31 8.83-2.65 17.08-4.02 24.75l-1.88 11L1008.53 361.76z"/>
    <path d="M1066.66 362.98c3.99 3.29 8.29 5.67 12.91 7.15 4.62 1.48 8.98 1.68 13.08 0.58 4.45-1.19 7.66-2.99 9.66-5.39 1.99-2.4 2.99-5.31 2.99-8.73 0-1.87-0.34-3.33-1.02-4.39 -0.68-1.06-1.68-1.96-2.99-2.7 -1.31-0.73-2.88-1.36-4.7-1.89 -1.82-0.52-3.93-1.08-6.32-1.69l-13.85-4.22c-2.96-0.76-5.81-2.06-8.55-3.89 -2.73-1.83-5.13-4.22-7.18-7.17 -2.05-2.95-3.68-6.51-4.87-10.71 -1.2-4.19-1.8-9-1.8-14.45 0-6.53 1.03-12.91 3.08-19.13 2.05-6.22 4.9-11.96 8.55-17.22 3.65-5.25 8.01-9.8 13.08-13.65 5.07-3.84 10.63-6.58 16.67-8.2 6.38-1.71 12.85-1.81 19.41-0.3 6.55 1.51 12.4 5.08 17.52 10.7l-14.7 29.13c-3.76-2.57-7.38-4.32-10.86-5.25 -3.48-0.93-7.27-0.85-11.37 0.25 -3.65 0.98-6.5 2.6-8.55 4.86 -2.05 2.26-3.08 5.1-3.08 8.52 0 3.58 1.45 5.95 4.36 7.11 2.91 1.17 6.92 2.38 12.05 3.65l13.51 3.61c6.95 1.87 12.31 5.65 16.07 11.32 3.76 5.68 5.64 13.81 5.64 24.38 0 6.38-0.97 12.78-2.91 19.2 -1.94 6.43-4.76 12.36-8.46 17.78 -3.7 5.42-8.23 10.18-13.59 14.25 -5.36 4.08-11.51 7.05-18.46 8.91 -7.07 1.89-14.33 2.09-21.8 0.59 -7.47-1.5-14.22-5.17-20.26-11.01L1066.66 362.98z"/>
  </g>
</svg>